<svg id="Layer_1" enable-background="new 0 0 512 512" height="512" viewBox="0 0 512 512" width="512" xmlns="http://www.w3.org/2000/svg"><g><g><g id="XMLID_44_"><g id="XMLID_45_"><g id="XMLID_46_"><g id="XMLID_47_"><g id="XMLID_48_"><g id="XMLID_49_"><g id="XMLID_66_"><g id="XMLID_67_"><g id="XMLID_68_"><g id="XMLID_69_"><g id="XMLID_70_"><g id="XMLID_71_"><g id="XMLID_72_"><g id="XMLID_73_"><circle id="XMLID_74_" cx="256" cy="256" fill="#6b3a16" r="256"/></g></g></g></g></g></g></g></g></g></g></g></g></g></g></g><path d="m511.948 260.078-234.953-234.954-24.16 80.837-53.813 132.554 35.107 35.145c-5.958 6.78-47.783 179.27-47.783 179.27l58.945 58.831c3.553.146 7.12.24 10.709.24 140.022-.001 253.767-112.421 255.948-251.923z" fill="#4c2409"/><g><g><path d="m256 480.402c-24.618 0-47.824-8.343-65.343-23.493-20.031-17.322-30.947-41.722-31.57-70.564-.02-.905-.029-1.819-.029-2.742 0-28.793 14.229-62.306 42.29-99.608 19.886-26.434 39.617-45.199 40.447-45.985l14.205-13.445 14.205 13.446c.83.786 20.561 19.551 40.447 45.985 28.062 37.302 42.29 70.815 42.29 99.608 0 .922-.01 1.837-.029 2.744-.623 28.84-11.54 53.24-31.57 70.562-17.519 15.149-40.725 23.492-65.343 23.492zm-.046-197.678c-22.874 25.182-55.57 68.304-55.57 100.879 0 .621.006 1.237.02 1.847.8 37.045 28.499 53.625 55.596 53.625s54.797-16.581 55.596-53.623c.013-.613.02-1.229.02-1.85 0-19.353-11.753-45.207-33.989-74.764-7.695-10.228-15.394-19.204-21.673-26.114z" fill="#ecbe00"/></g><g><g><path d="m310.65 284c-13.86-18.43-27.64-33.13-35-40.61-3.21-3.25-5.2-5.14-5.45-5.38l-14.2-13.45v58.22c6.27 6.9 13.95 15.86 21.63 26.06 22.23 29.56 33.99 55.41 33.99 74.76 0 .62-.01 1.24-.02 1.85-.8 37.05-28.5 53.63-55.6 53.63v41.32c24.62 0 47.82-8.34 65.34-23.49 20.03-17.32 30.95-41.72 31.57-70.56.02-.91.03-1.82.03-2.75 0-28.79-14.23-62.3-42.29-99.6z" fill="#ff9d21"/></g></g><g><path d="m235.005 25.124h41.99v102.827h-41.99z" fill="#ecbe00"/></g><g><g><g><path d="m256 25.12h21v102.83h-21z" fill="#ff9d21"/></g></g></g><g><path d="m300.032 165.784h-88.064c-10.85 0-19.646-8.796-19.646-19.646v-3.439c0-10.85 8.796-19.646 19.646-19.646h88.064c10.85 0 19.646 8.796 19.646 19.646v3.439c0 10.85-8.796 19.646-19.646 19.646z" fill="#ffec29"/><path d="m319.68 142.7v3.44c0 7.78-4.53 14.51-11.09 17.68-2.59 1.26-5.49 1.96-8.56 1.96h-44.03v-42.73h44.03c10.85 0 19.65 8.8 19.65 19.65z" fill="#ecbe00"/><path d="m300.032 204.587h-88.064c-10.85 0-19.646-8.796-19.646-19.646v-3.439c0-10.85 8.796-19.646 19.646-19.646h88.064c10.85 0 19.646 8.796 19.646 19.646v3.439c0 10.85-8.796 19.646-19.646 19.646z" fill="#ecbe00"/><path d="m319.68 181.5v3.44c0 7.78-4.52 14.5-11.08 17.69-2.59 1.25-5.5 1.96-8.57 1.96h-44.03v-42.73h44.03c3.07 0 5.97.7 8.56 1.96 6.56 3.17 11.09 9.9 11.09 17.68z" fill="#ff9d21"/><path d="m300.032 243.39h-88.064c-10.85 0-19.646-8.796-19.646-19.646v-3.439c0-10.85 8.796-19.646 19.646-19.646h88.064c10.85 0 19.646 8.796 19.646 19.646v3.439c0 10.85-8.796 19.646-19.646 19.646z" fill="#ffec29"/><g><path d="m319.68 220.3v3.44c0 10.85-8.8 19.65-19.65 19.65h-44.03v-42.73h44.03c3.07 0 5.98.71 8.57 1.97 6.56 3.17 11.08 9.89 11.08 17.67z" fill="#ecbe00"/></g></g></g></g></svg>